<svg xmlns="http://www.w3.org/2000/svg" width="196.44" height="130.469" viewBox="0 0 196.44 130.469">
  <metadata><?xpacket begin="﻿" id="W5M0MpCehiHzreSzNTczkc9d"?>
<x:xmpmeta xmlns:x="adobe:ns:meta/" x:xmptk="Adobe XMP Core 5.6-c142 79.160924, 2017/07/13-01:06:39        ">
   <rdf:RDF xmlns:rdf="http://www.w3.org/1999/02/22-rdf-syntax-ns#">
      <rdf:Description rdf:about=""/>
   </rdf:RDF>
</x:xmpmeta>
                                                                                                    
                                                                                                    
                                                                                                    
                                                                                                    
                                                                                                    
                                                                                                    
                                                                                                    
                                                                                                    
                                                                                                    
                                                                                                    
                                                                                                    
                                                                                                    
                                                                                                    
                                                                                                    
                                                                                                    
                                                                                                    
                                                                                                    
                                                                                                    
                                                                                                    
                                                                                                    
                           
<?xpacket end="w"?></metadata>
<defs>
    <style>
      .cls-1 {
        fill: #fff;
        fill-rule: evenodd;
      }
    </style>
  </defs>
  <path id="_02" data-name="02" class="cls-1" d="M1150.99,302.767q0-29.568-13.53-47.4t-37.54-17.831q-24.015,0-37.54,17.831t-13.53,47.4q0,29.567,13.53,47.4T1099.92,368q24.015,0,37.54-17.83T1150.99,302.767Zm-51.07-37.274q22.395,0,22.4,37.274t-22.4,37.273q-22.41,0-22.4-37.273T1099.92,265.493Zm145.36,99.993v-27.6h-42.11l20.79-20.967q19.53-19.53,19.53-39.423,0-18.279-12.45-29.12t-30.02-10.842a47.326,47.326,0,0,0-25.09,6.989,42.809,42.809,0,0,0-17.2,20.429l24.19,14.156q5.91-13.615,18.46-13.619,6.27,0,9.86,3.674a13.183,13.183,0,0,1,3.58,9.587q0,9.139-12.72,22.221L1159.98,344.7v20.787h85.3Z" transform="translate(-1048.84 -237.531)"/>
</svg>
