<svg xmlns="http://www.w3.org/2000/svg" width="199.91" height="130.469" viewBox="0 0 199.91 130.469">
  <metadata><?xpacket begin="﻿" id="W5M0MpCehiHzreSzNTczkc9d"?>
<x:xmpmeta xmlns:x="adobe:ns:meta/" x:xmptk="Adobe XMP Core 5.6-c142 79.160924, 2017/07/13-01:06:39        ">
   <rdf:RDF xmlns:rdf="http://www.w3.org/1999/02/22-rdf-syntax-ns#">
      <rdf:Description rdf:about=""/>
   </rdf:RDF>
</x:xmpmeta>
                                                                                                    
                                                                                                    
                                                                                                    
                                                                                                    
                                                                                                    
                                                                                                    
                                                                                                    
                                                                                                    
                                                                                                    
                                                                                                    
                                                                                                    
                                                                                                    
                                                                                                    
                                                                                                    
                                                                                                    
                                                                                                    
                                                                                                    
                                                                                                    
                                                                                                    
                                                                                                    
                           
<?xpacket end="w"?></metadata>
<defs>
    <style>
      .cls-1 {
        fill: #fff;
        fill-rule: evenodd;
      }
    </style>
  </defs>
  <path id="_03" data-name="03" class="cls-1" d="M1148.41,302.767q0-29.568-13.53-47.4t-37.54-17.831q-24.015,0-37.54,17.831t-13.53,47.4q0,29.567,13.53,47.4T1097.34,368q24.015,0,37.54-17.83T1148.41,302.767Zm-51.07-37.274q22.4,0,22.4,37.274t-22.4,37.273q-22.41,0-22.4-37.273T1097.34,265.493Zm143.82-2.15v-23.3h-80.64v26.88h45.88l-22.76,28.851,10.93,16.307h5.91q8.43,0,12.73,3.942a13.861,13.861,0,0,1,0,20.071q-4.305,3.943-12.73,3.942-14.505,0-19.17-13.261l-24.73,14.336a40.545,40.545,0,0,0,17.29,20.07,52.081,52.081,0,0,0,26.61,6.81q19.185,0,32.44-11.11t13.26-30.823a33.9,33.9,0,0,0-7.35-21.772,41.225,41.225,0,0,0-19.35-13.35Z" transform="translate(-1046.28 -237.531)"/>
</svg>
